# xmcd
#
# Track frame offsets: 
#        225
#        8217
#        19286
#        28617
#        38106
#        49772
#        62848
#        74470
#        84642
#        99466
#        111903
#        122697
#        133202
#        141579
#        154034
#        165889
#        175181
#        185013
#        198382
#        209813
#        219207
#        230549
#        244818
#        254322
#        266616
#        278308
#        290180
#        302974
#        314923
#        324709
#
# Disc length: 4466 seconds
#
# Revision: 0
# Processed by: cddbd v1.5.1PL0 Copyright (c) Steve Scherf et al.
# Submitted via: ExactAudioCopy v0.95a5
#
DISCID=cf116f1e
DTITLE=Beatles - Complete Edition CD 4
DYEAR=1964
DGENRE=Oldies
TTITLE0=I앏l cry instead
TTITLE1=I want to hold your hand
TTITLE2=Long tall sally
TTITLE3=Baby압 in black
TTITLE4=I앐 a loser
TTITLE5=Leave me kitten alone
TTITLE6=I don앖 want to spoil the party
TTITLE7=No reply 
TTITLE8=She압 a woman
TTITLE9=Eight days a week
TTITLE10=Everybody압 trying to be my baby
TTITLE11=I feel fine
TTITLE12=I앏l follow the sun
TTITLE13=Kansas City
TTITLE14=Mr. Moonlight
TTITLE15=Rock and Roll music
TTITLE16=Words of love
TTITLE17=Honey Don앖 
TTITLE18=What youre doing
TTITLE19=Every little thing
TTITLE20=I need you
TTITLE21=Ticket to ride
TTITLE22=Another girl
TTITLE23=Yes it is
TTITLE24=The night before
TTITLE25=You like me too much
TTITLE26=If you았e got trouble
TTITLE27=Tell me what you see
TTITLE28=You았e got to hide your love away
TTITLE29=Youre going to lose that girl
EXTD=
EXTT0=
EXTT1=
EXTT2=
EXTT3=
EXTT4=
EXTT5=
EXTT6=
EXTT7=
EXTT8=
EXTT9=
EXTT10=
EXTT11=
EXTT12=
EXTT13=
EXTT14=
EXTT15=
EXTT16=
EXTT17=
EXTT18=
EXTT19=
EXTT20=
EXTT21=
EXTT22=
EXTT23=
EXTT24=
EXTT25=
EXTT26=
EXTT27=
EXTT28=
EXTT29=
PLAYORDER=
